<svg width="849" height="987" viewBox="0 0 849 987" fill="none" xmlns="http://www.w3.org/2000/svg">
<path d="M45.0119 201.447C-36.509 119.765 11.0449 33.1146 45.0119 0H748V987C732.951 947.14 702.854 841.204 680.926 816.368C639.848 769.842 444.232 758.417 415.209 743.24C393.064 731.659 252.684 626.878 194.639 592.844C136.594 558.809 139.819 485.681 144.978 382.198C150.138 278.715 146.913 303.551 45.0119 201.447Z" fill="url(#paint0_linear_389_174)"/>
<path d="M89.072 201.447C7.44223 119.765 55.0596 33.1146 89.072 0H793V987C777.931 947.14 747.794 841.204 725.836 816.368C684.703 769.842 488.826 758.417 459.764 743.24C437.59 731.659 297.021 626.878 238.899 592.844C180.776 558.809 184.005 485.681 189.172 382.198C194.338 278.715 191.109 303.551 89.072 201.447Z" fill="url(#paint1_linear_389_174)"/>
<path d="M146.012 201.447C64.491 119.765 112.045 33.1146 146.012 0H849V987C833.951 947.14 803.854 841.204 781.926 816.368C740.848 769.842 545.232 758.417 516.209 743.24C494.064 731.659 353.684 626.878 295.639 592.844C237.594 558.809 240.819 485.681 245.978 382.198C251.138 278.715 247.913 303.551 146.012 201.447Z" fill="url(#paint2_linear_389_174)"/>
<defs>
<linearGradient id="paint0_linear_389_174" x1="765.413" y1="881.217" x2="519.351" y2="-65.5916" gradientUnits="userSpaceOnUse">
<stop stop-color="white"/>
<stop offset="0.505211" stop-color="#FEF3D9"/>
<stop offset="1" stop-color="#FEE9B7"/>
</linearGradient>
<linearGradient id="paint1_linear_389_174" x1="810.437" y1="881.217" x2="564.661" y2="-65.7514" gradientUnits="userSpaceOnUse">
<stop stop-color="white"/>
<stop offset="1" stop-color="#FFD572"/>
</linearGradient>
<linearGradient id="paint2_linear_389_174" x1="866.413" y1="881.217" x2="620.351" y2="-65.5916" gradientUnits="userSpaceOnUse">
<stop stop-color="white"/>
<stop offset="1" stop-color="#FFC948"/>
</linearGradient>
</defs>
</svg>
