<svg width="292" height="264" viewBox="0 0 292 264" fill="none" xmlns="http://www.w3.org/2000/svg">
<line x1="291.061" y1="193.21" x2="291.061" y2="70.5229" stroke="black"/>
<line y1="-0.5" x2="160.938" y2="-0.5" transform="matrix(0.899339 0.437253 -0.710067 0.704134 146.374 1.01221)" stroke="black"/>
<line y1="-0.5" x2="160.938" y2="-0.5" transform="matrix(0.899339 0.437253 -0.710067 0.704134 1.98163 70.5229)" stroke="black"/>
<line y1="-0.5" x2="160.938" y2="-0.5" transform="matrix(0.899339 0.437253 -0.710067 0.704134 1 193.21)" stroke="black"/>
<line y1="-0.5" x2="160.938" y2="-0.5" transform="matrix(0.899339 -0.437253 0.710067 0.704134 1.98163 71.3706)" stroke="black"/>
<line y1="-0.5" x2="160.938" y2="-0.5" transform="matrix(0.899339 -0.437253 0.710067 0.704134 146.28 141.575)" stroke="black"/>
<line y1="-0.5" x2="160.938" y2="-0.5" transform="matrix(0.899339 -0.437253 0.710067 0.704134 147.262 263.581)" stroke="black"/>
<line x1="145.78" y1="263.415" x2="145.78" y2="140.727" stroke="black"/>
<line x1="1.48163" y1="193.21" x2="1.48163" y2="70.5229" stroke="black"/>
</svg>
