<svg width="230" height="285" viewBox="0 0 230 285" fill="none" xmlns="http://www.w3.org/2000/svg">
<mask id="path-1-inside-1_238_92" fill="white">
<path d="M8.35484 4.17742C8.35484 6.48454 6.48454 8.35484 4.17742 8.35484C1.87029 8.35484 0 6.48454 0 4.17742C0 1.87029 1.87029 0 4.17742 0C6.48454 0 8.35484 1.87029 8.35484 4.17742Z"/>
<path d="M33.4194 4.17742C33.4194 6.48454 31.5491 8.35484 29.2419 8.35484C26.9348 8.35484 25.0645 6.48454 25.0645 4.17742C25.0645 1.87029 26.9348 0 29.2419 0C31.5491 0 33.4194 1.87029 33.4194 4.17742Z"/>
<path d="M58.4839 4.17742C58.4839 6.48454 56.6136 8.35484 54.3064 8.35484C51.9993 8.35484 50.129 6.48454 50.129 4.17742C50.129 1.87029 51.9993 0 54.3064 0C56.6136 0 58.4839 1.87029 58.4839 4.17742Z"/>
<path d="M83.5484 4.17742C83.5484 6.48454 81.6781 8.35484 79.371 8.35484C77.0638 8.35484 75.1936 6.48454 75.1936 4.17742C75.1936 1.87029 77.0638 0 79.371 0C81.6781 0 83.5484 1.87029 83.5484 4.17742Z"/>
<path d="M108.613 4.17742C108.613 6.48454 106.743 8.35484 104.435 8.35484C102.128 8.35484 100.258 6.48454 100.258 4.17742C100.258 1.87029 102.128 0 104.435 0C106.743 0 108.613 1.87029 108.613 4.17742Z"/>
<path d="M133.677 4.17742C133.677 6.48454 131.807 8.35484 129.5 8.35484C127.193 8.35484 125.323 6.48454 125.323 4.17742C125.323 1.87029 127.193 0 129.5 0C131.807 0 133.677 1.87029 133.677 4.17742Z"/>
<path d="M158.742 4.17742C158.742 6.48454 156.872 8.35484 154.565 8.35484C152.257 8.35484 150.387 6.48454 150.387 4.17742C150.387 1.87029 152.257 0 154.565 0C156.872 0 158.742 1.87029 158.742 4.17742Z"/>
<path d="M183.806 4.17742C183.806 6.48454 181.936 8.35484 179.629 8.35484C177.322 8.35484 175.452 6.48454 175.452 4.17742C175.452 1.87029 177.322 0 179.629 0C181.936 0 183.806 1.87029 183.806 4.17742Z"/>
<path d="M208.871 4.17742C208.871 6.48454 207.001 8.35484 204.694 8.35484C202.386 8.35484 200.516 6.48454 200.516 4.17742C200.516 1.87029 202.386 0 204.694 0C207.001 0 208.871 1.87029 208.871 4.17742Z"/>
<path d="M233.935 4.17742C233.935 6.48454 232.065 8.35484 229.758 8.35484C227.451 8.35484 225.581 6.48454 225.581 4.17742C225.581 1.87029 227.451 0 229.758 0C232.065 0 233.935 1.87029 233.935 4.17742Z"/>
<path d="M259 4.17742C259 6.48454 257.13 8.35484 254.823 8.35484C252.515 8.35484 250.645 6.48454 250.645 4.17742C250.645 1.87029 252.515 0 254.823 0C257.13 0 259 1.87029 259 4.17742Z"/>
<path d="M8.35484 29.2419C8.35484 31.5491 6.48454 33.4194 4.17742 33.4194C1.87029 33.4194 0 31.5491 0 29.2419C0 26.9348 1.87029 25.0645 4.17742 25.0645C6.48454 25.0645 8.35484 26.9348 8.35484 29.2419Z"/>
<path d="M33.4194 29.2419C33.4194 31.5491 31.5491 33.4194 29.2419 33.4194C26.9348 33.4194 25.0645 31.5491 25.0645 29.2419C25.0645 26.9348 26.9348 25.0645 29.2419 25.0645C31.5491 25.0645 33.4194 26.9348 33.4194 29.2419Z"/>
<path d="M58.4839 29.2419C58.4839 31.5491 56.6136 33.4194 54.3064 33.4194C51.9993 33.4194 50.129 31.5491 50.129 29.2419C50.129 26.9348 51.9993 25.0645 54.3064 25.0645C56.6136 25.0645 58.4839 26.9348 58.4839 29.2419Z"/>
<path d="M83.5484 29.2419C83.5484 31.5491 81.6781 33.4194 79.371 33.4194C77.0638 33.4194 75.1936 31.5491 75.1936 29.2419C75.1936 26.9348 77.0638 25.0645 79.371 25.0645C81.6781 25.0645 83.5484 26.9348 83.5484 29.2419Z"/>
<path d="M108.613 29.2419C108.613 31.5491 106.743 33.4194 104.435 33.4194C102.128 33.4194 100.258 31.5491 100.258 29.2419C100.258 26.9348 102.128 25.0645 104.435 25.0645C106.743 25.0645 108.613 26.9348 108.613 29.2419Z"/>
<path d="M133.677 29.2419C133.677 31.5491 131.807 33.4194 129.5 33.4194C127.193 33.4194 125.323 31.5491 125.323 29.2419C125.323 26.9348 127.193 25.0645 129.5 25.0645C131.807 25.0645 133.677 26.9348 133.677 29.2419Z"/>
<path d="M158.742 29.2419C158.742 31.5491 156.872 33.4194 154.565 33.4194C152.257 33.4194 150.387 31.5491 150.387 29.2419C150.387 26.9348 152.257 25.0645 154.565 25.0645C156.872 25.0645 158.742 26.9348 158.742 29.2419Z"/>
<path d="M183.806 29.2419C183.806 31.5491 181.936 33.4194 179.629 33.4194C177.322 33.4194 175.452 31.5491 175.452 29.2419C175.452 26.9348 177.322 25.0645 179.629 25.0645C181.936 25.0645 183.806 26.9348 183.806 29.2419Z"/>
<path d="M208.871 29.2419C208.871 31.5491 207.001 33.4194 204.694 33.4194C202.386 33.4194 200.516 31.5491 200.516 29.2419C200.516 26.9348 202.386 25.0645 204.694 25.0645C207.001 25.0645 208.871 26.9348 208.871 29.2419Z"/>
<path d="M233.935 29.2419C233.935 31.5491 232.065 33.4194 229.758 33.4194C227.451 33.4194 225.581 31.5491 225.581 29.2419C225.581 26.9348 227.451 25.0645 229.758 25.0645C232.065 25.0645 233.935 26.9348 233.935 29.2419Z"/>
<path d="M259 29.2419C259 31.5491 257.13 33.4194 254.823 33.4194C252.515 33.4194 250.645 31.5491 250.645 29.2419C250.645 26.9348 252.515 25.0645 254.823 25.0645C257.13 25.0645 259 26.9348 259 29.2419Z"/>
<path d="M8.35484 54.3064C8.35484 56.6136 6.48454 58.4839 4.17742 58.4839C1.87029 58.4839 0 56.6136 0 54.3064C0 51.9993 1.87029 50.129 4.17742 50.129C6.48454 50.129 8.35484 51.9993 8.35484 54.3064Z"/>
<path d="M33.4194 54.3064C33.4194 56.6136 31.5491 58.4839 29.2419 58.4839C26.9348 58.4839 25.0645 56.6136 25.0645 54.3064C25.0645 51.9993 26.9348 50.129 29.2419 50.129C31.5491 50.129 33.4194 51.9993 33.4194 54.3064Z"/>
<path d="M58.4839 54.3064C58.4839 56.6136 56.6136 58.4839 54.3064 58.4839C51.9993 58.4839 50.129 56.6136 50.129 54.3064C50.129 51.9993 51.9993 50.129 54.3064 50.129C56.6136 50.129 58.4839 51.9993 58.4839 54.3064Z"/>
<path d="M83.5484 54.3064C83.5484 56.6136 81.6781 58.4839 79.371 58.4839C77.0638 58.4839 75.1936 56.6136 75.1936 54.3064C75.1936 51.9993 77.0638 50.129 79.371 50.129C81.6781 50.129 83.5484 51.9993 83.5484 54.3064Z"/>
<path d="M108.613 54.3064C108.613 56.6136 106.743 58.4839 104.435 58.4839C102.128 58.4839 100.258 56.6136 100.258 54.3064C100.258 51.9993 102.128 50.129 104.435 50.129C106.743 50.129 108.613 51.9993 108.613 54.3064Z"/>
<path d="M133.677 54.3064C133.677 56.6136 131.807 58.4839 129.5 58.4839C127.193 58.4839 125.323 56.6136 125.323 54.3064C125.323 51.9993 127.193 50.129 129.5 50.129C131.807 50.129 133.677 51.9993 133.677 54.3064Z"/>
<path d="M158.742 54.3064C158.742 56.6136 156.872 58.4839 154.565 58.4839C152.257 58.4839 150.387 56.6136 150.387 54.3064C150.387 51.9993 152.257 50.129 154.565 50.129C156.872 50.129 158.742 51.9993 158.742 54.3064Z"/>
<path d="M183.806 54.3064C183.806 56.6136 181.936 58.4839 179.629 58.4839C177.322 58.4839 175.452 56.6136 175.452 54.3064C175.452 51.9993 177.322 50.129 179.629 50.129C181.936 50.129 183.806 51.9993 183.806 54.3064Z"/>
<path d="M208.871 54.3064C208.871 56.6136 207.001 58.4839 204.694 58.4839C202.386 58.4839 200.516 56.6136 200.516 54.3064C200.516 51.9993 202.386 50.129 204.694 50.129C207.001 50.129 208.871 51.9993 208.871 54.3064Z"/>
<path d="M233.935 54.3064C233.935 56.6136 232.065 58.4839 229.758 58.4839C227.451 58.4839 225.581 56.6136 225.581 54.3064C225.581 51.9993 227.451 50.129 229.758 50.129C232.065 50.129 233.935 51.9993 233.935 54.3064Z"/>
<path d="M259 54.3064C259 56.6136 257.13 58.4839 254.823 58.4839C252.515 58.4839 250.645 56.6136 250.645 54.3064C250.645 51.9993 252.515 50.129 254.823 50.129C257.13 50.129 259 51.9993 259 54.3064Z"/>
<path d="M8.35484 79.371C8.35484 81.6781 6.48454 83.5484 4.17742 83.5484C1.87029 83.5484 0 81.6781 0 79.371C0 77.0638 1.87029 75.1936 4.17742 75.1936C6.48454 75.1936 8.35484 77.0638 8.35484 79.371Z"/>
<path d="M33.4194 79.371C33.4194 81.6781 31.5491 83.5484 29.2419 83.5484C26.9348 83.5484 25.0645 81.6781 25.0645 79.371C25.0645 77.0638 26.9348 75.1936 29.2419 75.1936C31.5491 75.1936 33.4194 77.0638 33.4194 79.371Z"/>
<path d="M58.4839 79.371C58.4839 81.6781 56.6136 83.5484 54.3064 83.5484C51.9993 83.5484 50.129 81.6781 50.129 79.371C50.129 77.0638 51.9993 75.1936 54.3064 75.1936C56.6136 75.1936 58.4839 77.0638 58.4839 79.371Z"/>
<path d="M83.5484 79.371C83.5484 81.6781 81.6781 83.5484 79.371 83.5484C77.0638 83.5484 75.1936 81.6781 75.1936 79.371C75.1936 77.0638 77.0638 75.1936 79.371 75.1936C81.6781 75.1936 83.5484 77.0638 83.5484 79.371Z"/>
<path d="M108.613 79.371C108.613 81.6781 106.743 83.5484 104.435 83.5484C102.128 83.5484 100.258 81.6781 100.258 79.371C100.258 77.0638 102.128 75.1936 104.435 75.1936C106.743 75.1936 108.613 77.0638 108.613 79.371Z"/>
<path d="M133.677 79.371C133.677 81.6781 131.807 83.5484 129.5 83.5484C127.193 83.5484 125.323 81.6781 125.323 79.371C125.323 77.0638 127.193 75.1936 129.5 75.1936C131.807 75.1936 133.677 77.0638 133.677 79.371Z"/>
<path d="M158.742 79.371C158.742 81.6781 156.872 83.5484 154.565 83.5484C152.257 83.5484 150.387 81.6781 150.387 79.371C150.387 77.0638 152.257 75.1936 154.565 75.1936C156.872 75.1936 158.742 77.0638 158.742 79.371Z"/>
<path d="M183.806 79.371C183.806 81.6781 181.936 83.5484 179.629 83.5484C177.322 83.5484 175.452 81.6781 175.452 79.371C175.452 77.0638 177.322 75.1936 179.629 75.1936C181.936 75.1936 183.806 77.0638 183.806 79.371Z"/>
<path d="M208.871 79.371C208.871 81.6781 207.001 83.5484 204.694 83.5484C202.386 83.5484 200.516 81.6781 200.516 79.371C200.516 77.0638 202.386 75.1936 204.694 75.1936C207.001 75.1936 208.871 77.0638 208.871 79.371Z"/>
<path d="M233.935 79.371C233.935 81.6781 232.065 83.5484 229.758 83.5484C227.451 83.5484 225.581 81.6781 225.581 79.371C225.581 77.0638 227.451 75.1936 229.758 75.1936C232.065 75.1936 233.935 77.0638 233.935 79.371Z"/>
<path d="M259 79.371C259 81.6781 257.13 83.5484 254.823 83.5484C252.515 83.5484 250.645 81.6781 250.645 79.371C250.645 77.0638 252.515 75.1936 254.823 75.1936C257.13 75.1936 259 77.0638 259 79.371Z"/>
<path d="M8.35484 104.435C8.35484 106.743 6.48454 108.613 4.17742 108.613C1.87029 108.613 0 106.743 0 104.435C0 102.128 1.87029 100.258 4.17742 100.258C6.48454 100.258 8.35484 102.128 8.35484 104.435Z"/>
<path d="M33.4194 104.435C33.4194 106.743 31.5491 108.613 29.2419 108.613C26.9348 108.613 25.0645 106.743 25.0645 104.435C25.0645 102.128 26.9348 100.258 29.2419 100.258C31.5491 100.258 33.4194 102.128 33.4194 104.435Z"/>
<path d="M58.4839 104.435C58.4839 106.743 56.6136 108.613 54.3064 108.613C51.9993 108.613 50.129 106.743 50.129 104.435C50.129 102.128 51.9993 100.258 54.3064 100.258C56.6136 100.258 58.4839 102.128 58.4839 104.435Z"/>
<path d="M83.5484 104.435C83.5484 106.743 81.6781 108.613 79.371 108.613C77.0638 108.613 75.1936 106.743 75.1936 104.435C75.1936 102.128 77.0638 100.258 79.371 100.258C81.6781 100.258 83.5484 102.128 83.5484 104.435Z"/>
<path d="M108.613 104.435C108.613 106.743 106.743 108.613 104.435 108.613C102.128 108.613 100.258 106.743 100.258 104.435C100.258 102.128 102.128 100.258 104.435 100.258C106.743 100.258 108.613 102.128 108.613 104.435Z"/>
<path d="M133.677 104.435C133.677 106.743 131.807 108.613 129.5 108.613C127.193 108.613 125.323 106.743 125.323 104.435C125.323 102.128 127.193 100.258 129.5 100.258C131.807 100.258 133.677 102.128 133.677 104.435Z"/>
<path d="M158.742 104.435C158.742 106.743 156.872 108.613 154.565 108.613C152.257 108.613 150.387 106.743 150.387 104.435C150.387 102.128 152.257 100.258 154.565 100.258C156.872 100.258 158.742 102.128 158.742 104.435Z"/>
<path d="M183.806 104.435C183.806 106.743 181.936 108.613 179.629 108.613C177.322 108.613 175.452 106.743 175.452 104.435C175.452 102.128 177.322 100.258 179.629 100.258C181.936 100.258 183.806 102.128 183.806 104.435Z"/>
<path d="M208.871 104.435C208.871 106.743 207.001 108.613 204.694 108.613C202.386 108.613 200.516 106.743 200.516 104.435C200.516 102.128 202.386 100.258 204.694 100.258C207.001 100.258 208.871 102.128 208.871 104.435Z"/>
<path d="M233.935 104.435C233.935 106.743 232.065 108.613 229.758 108.613C227.451 108.613 225.581 106.743 225.581 104.435C225.581 102.128 227.451 100.258 229.758 100.258C232.065 100.258 233.935 102.128 233.935 104.435Z"/>
<path d="M259 104.435C259 106.743 257.13 108.613 254.823 108.613C252.515 108.613 250.645 106.743 250.645 104.435C250.645 102.128 252.515 100.258 254.823 100.258C257.13 100.258 259 102.128 259 104.435Z"/>
<path d="M8.35484 129.5C8.35484 131.807 6.48454 133.677 4.17742 133.677C1.87029 133.677 0 131.807 0 129.5C0 127.193 1.87029 125.323 4.17742 125.323C6.48454 125.323 8.35484 127.193 8.35484 129.5Z"/>
<path d="M33.4194 129.5C33.4194 131.807 31.5491 133.677 29.2419 133.677C26.9348 133.677 25.0645 131.807 25.0645 129.5C25.0645 127.193 26.9348 125.323 29.2419 125.323C31.5491 125.323 33.4194 127.193 33.4194 129.5Z"/>
<path d="M58.4839 129.5C58.4839 131.807 56.6136 133.677 54.3064 133.677C51.9993 133.677 50.129 131.807 50.129 129.5C50.129 127.193 51.9993 125.323 54.3064 125.323C56.6136 125.323 58.4839 127.193 58.4839 129.5Z"/>
<path d="M83.5484 129.5C83.5484 131.807 81.6781 133.677 79.371 133.677C77.0638 133.677 75.1936 131.807 75.1936 129.5C75.1936 127.193 77.0638 125.323 79.371 125.323C81.6781 125.323 83.5484 127.193 83.5484 129.5Z"/>
<path d="M108.613 129.5C108.613 131.807 106.743 133.677 104.435 133.677C102.128 133.677 100.258 131.807 100.258 129.5C100.258 127.193 102.128 125.323 104.435 125.323C106.743 125.323 108.613 127.193 108.613 129.5Z"/>
<path d="M133.677 129.5C133.677 131.807 131.807 133.677 129.5 133.677C127.193 133.677 125.323 131.807 125.323 129.5C125.323 127.193 127.193 125.323 129.5 125.323C131.807 125.323 133.677 127.193 133.677 129.5Z"/>
<path d="M158.742 129.5C158.742 131.807 156.872 133.677 154.565 133.677C152.257 133.677 150.387 131.807 150.387 129.5C150.387 127.193 152.257 125.323 154.565 125.323C156.872 125.323 158.742 127.193 158.742 129.5Z"/>
<path d="M183.806 129.5C183.806 131.807 181.936 133.677 179.629 133.677C177.322 133.677 175.452 131.807 175.452 129.5C175.452 127.193 177.322 125.323 179.629 125.323C181.936 125.323 183.806 127.193 183.806 129.5Z"/>
<path d="M208.871 129.5C208.871 131.807 207.001 133.677 204.694 133.677C202.386 133.677 200.516 131.807 200.516 129.5C200.516 127.193 202.386 125.323 204.694 125.323C207.001 125.323 208.871 127.193 208.871 129.5Z"/>
<path d="M233.935 129.5C233.935 131.807 232.065 133.677 229.758 133.677C227.451 133.677 225.581 131.807 225.581 129.5C225.581 127.193 227.451 125.323 229.758 125.323C232.065 125.323 233.935 127.193 233.935 129.5Z"/>
<path d="M259 129.5C259 131.807 257.13 133.677 254.823 133.677C252.515 133.677 250.645 131.807 250.645 129.5C250.645 127.193 252.515 125.323 254.823 125.323C257.13 125.323 259 127.193 259 129.5Z"/>
<path d="M8.35484 154.565C8.35484 156.872 6.48454 158.742 4.17742 158.742C1.87029 158.742 0 156.872 0 154.565C0 152.257 1.87029 150.387 4.17742 150.387C6.48454 150.387 8.35484 152.257 8.35484 154.565Z"/>
<path d="M33.4194 154.565C33.4194 156.872 31.5491 158.742 29.2419 158.742C26.9348 158.742 25.0645 156.872 25.0645 154.565C25.0645 152.257 26.9348 150.387 29.2419 150.387C31.5491 150.387 33.4194 152.257 33.4194 154.565Z"/>
<path d="M58.4839 154.565C58.4839 156.872 56.6136 158.742 54.3064 158.742C51.9993 158.742 50.129 156.872 50.129 154.565C50.129 152.257 51.9993 150.387 54.3064 150.387C56.6136 150.387 58.4839 152.257 58.4839 154.565Z"/>
<path d="M83.5484 154.565C83.5484 156.872 81.6781 158.742 79.371 158.742C77.0638 158.742 75.1936 156.872 75.1936 154.565C75.1936 152.257 77.0638 150.387 79.371 150.387C81.6781 150.387 83.5484 152.257 83.5484 154.565Z"/>
<path d="M108.613 154.565C108.613 156.872 106.743 158.742 104.435 158.742C102.128 158.742 100.258 156.872 100.258 154.565C100.258 152.257 102.128 150.387 104.435 150.387C106.743 150.387 108.613 152.257 108.613 154.565Z"/>
<path d="M133.677 154.565C133.677 156.872 131.807 158.742 129.5 158.742C127.193 158.742 125.323 156.872 125.323 154.565C125.323 152.257 127.193 150.387 129.5 150.387C131.807 150.387 133.677 152.257 133.677 154.565Z"/>
<path d="M158.742 154.565C158.742 156.872 156.872 158.742 154.565 158.742C152.257 158.742 150.387 156.872 150.387 154.565C150.387 152.257 152.257 150.387 154.565 150.387C156.872 150.387 158.742 152.257 158.742 154.565Z"/>
<path d="M183.806 154.565C183.806 156.872 181.936 158.742 179.629 158.742C177.322 158.742 175.452 156.872 175.452 154.565C175.452 152.257 177.322 150.387 179.629 150.387C181.936 150.387 183.806 152.257 183.806 154.565Z"/>
<path d="M208.871 154.565C208.871 156.872 207.001 158.742 204.694 158.742C202.386 158.742 200.516 156.872 200.516 154.565C200.516 152.257 202.386 150.387 204.694 150.387C207.001 150.387 208.871 152.257 208.871 154.565Z"/>
<path d="M233.935 154.565C233.935 156.872 232.065 158.742 229.758 158.742C227.451 158.742 225.581 156.872 225.581 154.565C225.581 152.257 227.451 150.387 229.758 150.387C232.065 150.387 233.935 152.257 233.935 154.565Z"/>
<path d="M259 154.565C259 156.872 257.13 158.742 254.823 158.742C252.515 158.742 250.645 156.872 250.645 154.565C250.645 152.257 252.515 150.387 254.823 150.387C257.13 150.387 259 152.257 259 154.565Z"/>
<path d="M8.35484 179.629C8.35484 181.936 6.48454 183.806 4.17742 183.806C1.87029 183.806 0 181.936 0 179.629C0 177.322 1.87029 175.452 4.17742 175.452C6.48454 175.452 8.35484 177.322 8.35484 179.629Z"/>
<path d="M33.4194 179.629C33.4194 181.936 31.5491 183.806 29.2419 183.806C26.9348 183.806 25.0645 181.936 25.0645 179.629C25.0645 177.322 26.9348 175.452 29.2419 175.452C31.5491 175.452 33.4194 177.322 33.4194 179.629Z"/>
<path d="M58.4839 179.629C58.4839 181.936 56.6136 183.806 54.3064 183.806C51.9993 183.806 50.129 181.936 50.129 179.629C50.129 177.322 51.9993 175.452 54.3064 175.452C56.6136 175.452 58.4839 177.322 58.4839 179.629Z"/>
<path d="M83.5484 179.629C83.5484 181.936 81.6781 183.806 79.371 183.806C77.0638 183.806 75.1936 181.936 75.1936 179.629C75.1936 177.322 77.0638 175.452 79.371 175.452C81.6781 175.452 83.5484 177.322 83.5484 179.629Z"/>
<path d="M108.613 179.629C108.613 181.936 106.743 183.806 104.435 183.806C102.128 183.806 100.258 181.936 100.258 179.629C100.258 177.322 102.128 175.452 104.435 175.452C106.743 175.452 108.613 177.322 108.613 179.629Z"/>
<path d="M133.677 179.629C133.677 181.936 131.807 183.806 129.5 183.806C127.193 183.806 125.323 181.936 125.323 179.629C125.323 177.322 127.193 175.452 129.5 175.452C131.807 175.452 133.677 177.322 133.677 179.629Z"/>
<path d="M158.742 179.629C158.742 181.936 156.872 183.806 154.565 183.806C152.257 183.806 150.387 181.936 150.387 179.629C150.387 177.322 152.257 175.452 154.565 175.452C156.872 175.452 158.742 177.322 158.742 179.629Z"/>
<path d="M183.806 179.629C183.806 181.936 181.936 183.806 179.629 183.806C177.322 183.806 175.452 181.936 175.452 179.629C175.452 177.322 177.322 175.452 179.629 175.452C181.936 175.452 183.806 177.322 183.806 179.629Z"/>
<path d="M208.871 179.629C208.871 181.936 207.001 183.806 204.694 183.806C202.386 183.806 200.516 181.936 200.516 179.629C200.516 177.322 202.386 175.452 204.694 175.452C207.001 175.452 208.871 177.322 208.871 179.629Z"/>
<path d="M233.935 179.629C233.935 181.936 232.065 183.806 229.758 183.806C227.451 183.806 225.581 181.936 225.581 179.629C225.581 177.322 227.451 175.452 229.758 175.452C232.065 175.452 233.935 177.322 233.935 179.629Z"/>
<path d="M259 179.629C259 181.936 257.13 183.806 254.823 183.806C252.515 183.806 250.645 181.936 250.645 179.629C250.645 177.322 252.515 175.452 254.823 175.452C257.13 175.452 259 177.322 259 179.629Z"/>
<path d="M8.35484 204.694C8.35484 207.001 6.48454 208.871 4.17742 208.871C1.87029 208.871 0 207.001 0 204.694C0 202.386 1.87029 200.516 4.17742 200.516C6.48454 200.516 8.35484 202.386 8.35484 204.694Z"/>
<path d="M33.4194 204.694C33.4194 207.001 31.5491 208.871 29.2419 208.871C26.9348 208.871 25.0645 207.001 25.0645 204.694C25.0645 202.386 26.9348 200.516 29.2419 200.516C31.5491 200.516 33.4194 202.386 33.4194 204.694Z"/>
<path d="M58.4839 204.694C58.4839 207.001 56.6136 208.871 54.3064 208.871C51.9993 208.871 50.129 207.001 50.129 204.694C50.129 202.386 51.9993 200.516 54.3064 200.516C56.6136 200.516 58.4839 202.386 58.4839 204.694Z"/>
<path d="M83.5484 204.694C83.5484 207.001 81.6781 208.871 79.371 208.871C77.0638 208.871 75.1936 207.001 75.1936 204.694C75.1936 202.386 77.0638 200.516 79.371 200.516C81.6781 200.516 83.5484 202.386 83.5484 204.694Z"/>
<path d="M108.613 204.694C108.613 207.001 106.743 208.871 104.435 208.871C102.128 208.871 100.258 207.001 100.258 204.694C100.258 202.386 102.128 200.516 104.435 200.516C106.743 200.516 108.613 202.386 108.613 204.694Z"/>
<path d="M133.677 204.694C133.677 207.001 131.807 208.871 129.5 208.871C127.193 208.871 125.323 207.001 125.323 204.694C125.323 202.386 127.193 200.516 129.5 200.516C131.807 200.516 133.677 202.386 133.677 204.694Z"/>
<path d="M158.742 204.694C158.742 207.001 156.872 208.871 154.565 208.871C152.257 208.871 150.387 207.001 150.387 204.694C150.387 202.386 152.257 200.516 154.565 200.516C156.872 200.516 158.742 202.386 158.742 204.694Z"/>
<path d="M183.806 204.694C183.806 207.001 181.936 208.871 179.629 208.871C177.322 208.871 175.452 207.001 175.452 204.694C175.452 202.386 177.322 200.516 179.629 200.516C181.936 200.516 183.806 202.386 183.806 204.694Z"/>
<path d="M208.871 204.694C208.871 207.001 207.001 208.871 204.694 208.871C202.386 208.871 200.516 207.001 200.516 204.694C200.516 202.386 202.386 200.516 204.694 200.516C207.001 200.516 208.871 202.386 208.871 204.694Z"/>
<path d="M233.935 204.694C233.935 207.001 232.065 208.871 229.758 208.871C227.451 208.871 225.581 207.001 225.581 204.694C225.581 202.386 227.451 200.516 229.758 200.516C232.065 200.516 233.935 202.386 233.935 204.694Z"/>
<path d="M259 204.694C259 207.001 257.13 208.871 254.823 208.871C252.515 208.871 250.645 207.001 250.645 204.694C250.645 202.386 252.515 200.516 254.823 200.516C257.13 200.516 259 202.386 259 204.694Z"/>
<path d="M8.35484 229.758C8.35484 232.065 6.48454 233.935 4.17742 233.935C1.87029 233.935 0 232.065 0 229.758C0 227.451 1.87029 225.581 4.17742 225.581C6.48454 225.581 8.35484 227.451 8.35484 229.758Z"/>
<path d="M33.4194 229.758C33.4194 232.065 31.5491 233.935 29.2419 233.935C26.9348 233.935 25.0645 232.065 25.0645 229.758C25.0645 227.451 26.9348 225.581 29.2419 225.581C31.5491 225.581 33.4194 227.451 33.4194 229.758Z"/>
<path d="M58.4839 229.758C58.4839 232.065 56.6136 233.935 54.3064 233.935C51.9993 233.935 50.129 232.065 50.129 229.758C50.129 227.451 51.9993 225.581 54.3064 225.581C56.6136 225.581 58.4839 227.451 58.4839 229.758Z"/>
<path d="M83.5484 229.758C83.5484 232.065 81.6781 233.935 79.371 233.935C77.0638 233.935 75.1936 232.065 75.1936 229.758C75.1936 227.451 77.0638 225.581 79.371 225.581C81.6781 225.581 83.5484 227.451 83.5484 229.758Z"/>
<path d="M108.613 229.758C108.613 232.065 106.743 233.935 104.435 233.935C102.128 233.935 100.258 232.065 100.258 229.758C100.258 227.451 102.128 225.581 104.435 225.581C106.743 225.581 108.613 227.451 108.613 229.758Z"/>
<path d="M133.677 229.758C133.677 232.065 131.807 233.935 129.5 233.935C127.193 233.935 125.323 232.065 125.323 229.758C125.323 227.451 127.193 225.581 129.5 225.581C131.807 225.581 133.677 227.451 133.677 229.758Z"/>
<path d="M158.742 229.758C158.742 232.065 156.872 233.935 154.565 233.935C152.257 233.935 150.387 232.065 150.387 229.758C150.387 227.451 152.257 225.581 154.565 225.581C156.872 225.581 158.742 227.451 158.742 229.758Z"/>
<path d="M183.806 229.758C183.806 232.065 181.936 233.935 179.629 233.935C177.322 233.935 175.452 232.065 175.452 229.758C175.452 227.451 177.322 225.581 179.629 225.581C181.936 225.581 183.806 227.451 183.806 229.758Z"/>
<path d="M208.871 229.758C208.871 232.065 207.001 233.935 204.694 233.935C202.386 233.935 200.516 232.065 200.516 229.758C200.516 227.451 202.386 225.581 204.694 225.581C207.001 225.581 208.871 227.451 208.871 229.758Z"/>
<path d="M233.935 229.758C233.935 232.065 232.065 233.935 229.758 233.935C227.451 233.935 225.581 232.065 225.581 229.758C225.581 227.451 227.451 225.581 229.758 225.581C232.065 225.581 233.935 227.451 233.935 229.758Z"/>
<path d="M259 229.758C259 232.065 257.13 233.935 254.823 233.935C252.515 233.935 250.645 232.065 250.645 229.758C250.645 227.451 252.515 225.581 254.823 225.581C257.13 225.581 259 227.451 259 229.758Z"/>
<path d="M8.35484 254.823C8.35484 257.13 6.48454 259 4.17742 259C1.87029 259 0 257.13 0 254.823C0 252.515 1.87029 250.645 4.17742 250.645C6.48454 250.645 8.35484 252.515 8.35484 254.823Z"/>
<path d="M33.4194 254.823C33.4194 257.13 31.5491 259 29.2419 259C26.9348 259 25.0645 257.13 25.0645 254.823C25.0645 252.515 26.9348 250.645 29.2419 250.645C31.5491 250.645 33.4194 252.515 33.4194 254.823Z"/>
<path d="M58.4839 254.823C58.4839 257.13 56.6136 259 54.3064 259C51.9993 259 50.129 257.13 50.129 254.823C50.129 252.515 51.9993 250.645 54.3064 250.645C56.6136 250.645 58.4839 252.515 58.4839 254.823Z"/>
<path d="M83.5484 254.823C83.5484 257.13 81.6781 259 79.371 259C77.0638 259 75.1936 257.13 75.1936 254.823C75.1936 252.515 77.0638 250.645 79.371 250.645C81.6781 250.645 83.5484 252.515 83.5484 254.823Z"/>
<path d="M108.613 254.823C108.613 257.13 106.743 259 104.435 259C102.128 259 100.258 257.13 100.258 254.823C100.258 252.515 102.128 250.645 104.435 250.645C106.743 250.645 108.613 252.515 108.613 254.823Z"/>
<path d="M133.677 254.823C133.677 257.13 131.807 259 129.5 259C127.193 259 125.323 257.13 125.323 254.823C125.323 252.515 127.193 250.645 129.5 250.645C131.807 250.645 133.677 252.515 133.677 254.823Z"/>
<path d="M158.742 254.823C158.742 257.13 156.872 259 154.565 259C152.257 259 150.387 257.13 150.387 254.823C150.387 252.515 152.257 250.645 154.565 250.645C156.872 250.645 158.742 252.515 158.742 254.823Z"/>
<path d="M183.806 254.823C183.806 257.13 181.936 259 179.629 259C177.322 259 175.452 257.13 175.452 254.823C175.452 252.515 177.322 250.645 179.629 250.645C181.936 250.645 183.806 252.515 183.806 254.823Z"/>
<path d="M208.871 254.823C208.871 257.13 207.001 259 204.694 259C202.386 259 200.516 257.13 200.516 254.823C200.516 252.515 202.386 250.645 204.694 250.645C207.001 250.645 208.871 252.515 208.871 254.823Z"/>
<path d="M233.935 254.823C233.935 257.13 232.065 259 229.758 259C227.451 259 225.581 257.13 225.581 254.823C225.581 252.515 227.451 250.645 229.758 250.645C232.065 250.645 233.935 252.515 233.935 254.823Z"/>
<path d="M259 254.823C259 257.13 257.13 259 254.823 259C252.515 259 250.645 257.13 250.645 254.823C250.645 252.515 252.515 250.645 254.823 250.645C257.13 250.645 259 252.515 259 254.823Z"/>
<path d="M8.35484 279.887C8.35484 282.194 6.48454 284.065 4.17742 284.065C1.87029 284.065 0 282.194 0 279.887C0 277.58 1.87029 275.71 4.17742 275.71C6.48454 275.71 8.35484 277.58 8.35484 279.887Z"/>
<path d="M33.4194 279.887C33.4194 282.194 31.5491 284.065 29.2419 284.065C26.9348 284.065 25.0645 282.194 25.0645 279.887C25.0645 277.58 26.9348 275.71 29.2419 275.71C31.5491 275.71 33.4194 277.58 33.4194 279.887Z"/>
<path d="M58.4839 279.887C58.4839 282.194 56.6136 284.065 54.3064 284.065C51.9993 284.065 50.129 282.194 50.129 279.887C50.129 277.58 51.9993 275.71 54.3064 275.71C56.6136 275.71 58.4839 277.58 58.4839 279.887Z"/>
<path d="M83.5484 279.887C83.5484 282.194 81.6781 284.065 79.371 284.065C77.0638 284.065 75.1936 282.194 75.1936 279.887C75.1936 277.58 77.0638 275.71 79.371 275.71C81.6781 275.71 83.5484 277.58 83.5484 279.887Z"/>
<path d="M108.613 279.887C108.613 282.194 106.743 284.065 104.435 284.065C102.128 284.065 100.258 282.194 100.258 279.887C100.258 277.58 102.128 275.71 104.435 275.71C106.743 275.71 108.613 277.58 108.613 279.887Z"/>
<path d="M133.677 279.887C133.677 282.194 131.807 284.065 129.5 284.065C127.193 284.065 125.323 282.194 125.323 279.887C125.323 277.58 127.193 275.71 129.5 275.71C131.807 275.71 133.677 277.58 133.677 279.887Z"/>
<path d="M158.742 279.887C158.742 282.194 156.872 284.065 154.565 284.065C152.257 284.065 150.387 282.194 150.387 279.887C150.387 277.58 152.257 275.71 154.565 275.71C156.872 275.71 158.742 277.58 158.742 279.887Z"/>
<path d="M183.806 279.887C183.806 282.194 181.936 284.065 179.629 284.065C177.322 284.065 175.452 282.194 175.452 279.887C175.452 277.58 177.322 275.71 179.629 275.71C181.936 275.71 183.806 277.58 183.806 279.887Z"/>
<path d="M208.871 279.887C208.871 282.194 207.001 284.065 204.694 284.065C202.386 284.065 200.516 282.194 200.516 279.887C200.516 277.58 202.386 275.71 204.694 275.71C207.001 275.71 208.871 277.58 208.871 279.887Z"/>
<path d="M233.935 279.887C233.935 282.194 232.065 284.065 229.758 284.065C227.451 284.065 225.581 282.194 225.581 279.887C225.581 277.58 227.451 275.71 229.758 275.71C232.065 275.71 233.935 277.58 233.935 279.887Z"/>
<path d="M259 279.887C259 282.194 257.13 284.065 254.823 284.065C252.515 284.065 250.645 282.194 250.645 279.887C250.645 277.58 252.515 275.71 254.823 275.71C257.13 275.71 259 277.58 259 279.887Z"/>
</mask>
<path d="M8.35484 4.17742C8.35484 6.48454 6.48454 8.35484 4.17742 8.35484C1.87029 8.35484 0 6.48454 0 4.17742C0 1.87029 1.87029 0 4.17742 0C6.48454 0 8.35484 1.87029 8.35484 4.17742Z" stroke="black" stroke-width="2" mask="url(#path-1-inside-1_238_92)"/>
<path d="M33.4194 4.17742C33.4194 6.48454 31.5491 8.35484 29.2419 8.35484C26.9348 8.35484 25.0645 6.48454 25.0645 4.17742C25.0645 1.87029 26.9348 0 29.2419 0C31.5491 0 33.4194 1.87029 33.4194 4.17742Z" stroke="black" stroke-width="2" mask="url(#path-1-inside-1_238_92)"/>
<path d="M58.4839 4.17742C58.4839 6.48454 56.6136 8.35484 54.3064 8.35484C51.9993 8.35484 50.129 6.48454 50.129 4.17742C50.129 1.87029 51.9993 0 54.3064 0C56.6136 0 58.4839 1.87029 58.4839 4.17742Z" stroke="black" stroke-width="2" mask="url(#path-1-inside-1_238_92)"/>
<path d="M83.5484 4.17742C83.5484 6.48454 81.6781 8.35484 79.371 8.35484C77.0638 8.35484 75.1936 6.48454 75.1936 4.17742C75.1936 1.87029 77.0638 0 79.371 0C81.6781 0 83.5484 1.87029 83.5484 4.17742Z" stroke="black" stroke-width="2" mask="url(#path-1-inside-1_238_92)"/>
<path d="M108.613 4.17742C108.613 6.48454 106.743 8.35484 104.435 8.35484C102.128 8.35484 100.258 6.48454 100.258 4.17742C100.258 1.87029 102.128 0 104.435 0C106.743 0 108.613 1.87029 108.613 4.17742Z" stroke="black" stroke-width="2" mask="url(#path-1-inside-1_238_92)"/>
<path d="M133.677 4.17742C133.677 6.48454 131.807 8.35484 129.5 8.35484C127.193 8.35484 125.323 6.48454 125.323 4.17742C125.323 1.87029 127.193 0 129.5 0C131.807 0 133.677 1.87029 133.677 4.17742Z" stroke="black" stroke-width="2" mask="url(#path-1-inside-1_238_92)"/>
<path d="M158.742 4.17742C158.742 6.48454 156.872 8.35484 154.565 8.35484C152.257 8.35484 150.387 6.48454 150.387 4.17742C150.387 1.87029 152.257 0 154.565 0C156.872 0 158.742 1.87029 158.742 4.17742Z" stroke="black" stroke-width="2" mask="url(#path-1-inside-1_238_92)"/>
<path d="M183.806 4.17742C183.806 6.48454 181.936 8.35484 179.629 8.35484C177.322 8.35484 175.452 6.48454 175.452 4.17742C175.452 1.87029 177.322 0 179.629 0C181.936 0 183.806 1.87029 183.806 4.17742Z" stroke="black" stroke-width="2" mask="url(#path-1-inside-1_238_92)"/>
<path d="M208.871 4.17742C208.871 6.48454 207.001 8.35484 204.694 8.35484C202.386 8.35484 200.516 6.48454 200.516 4.17742C200.516 1.87029 202.386 0 204.694 0C207.001 0 208.871 1.87029 208.871 4.17742Z" stroke="black" stroke-width="2" mask="url(#path-1-inside-1_238_92)"/>
<path d="M233.935 4.17742C233.935 6.48454 232.065 8.35484 229.758 8.35484C227.451 8.35484 225.581 6.48454 225.581 4.17742C225.581 1.87029 227.451 0 229.758 0C232.065 0 233.935 1.87029 233.935 4.17742Z" stroke="black" stroke-width="2" mask="url(#path-1-inside-1_238_92)"/>
<path d="M259 4.17742C259 6.48454 257.13 8.35484 254.823 8.35484C252.515 8.35484 250.645 6.48454 250.645 4.17742C250.645 1.87029 252.515 0 254.823 0C257.13 0 259 1.87029 259 4.17742Z" stroke="black" stroke-width="2" mask="url(#path-1-inside-1_238_92)"/>
<path d="M8.35484 29.2419C8.35484 31.5491 6.48454 33.4194 4.17742 33.4194C1.87029 33.4194 0 31.5491 0 29.2419C0 26.9348 1.87029 25.0645 4.17742 25.0645C6.48454 25.0645 8.35484 26.9348 8.35484 29.2419Z" stroke="black" stroke-width="2" mask="url(#path-1-inside-1_238_92)"/>
<path d="M33.4194 29.2419C33.4194 31.5491 31.5491 33.4194 29.2419 33.4194C26.9348 33.4194 25.0645 31.5491 25.0645 29.2419C25.0645 26.9348 26.9348 25.0645 29.2419 25.0645C31.5491 25.0645 33.4194 26.9348 33.4194 29.2419Z" stroke="black" stroke-width="2" mask="url(#path-1-inside-1_238_92)"/>
<path d="M58.4839 29.2419C58.4839 31.5491 56.6136 33.4194 54.3064 33.4194C51.9993 33.4194 50.129 31.5491 50.129 29.2419C50.129 26.9348 51.9993 25.0645 54.3064 25.0645C56.6136 25.0645 58.4839 26.9348 58.4839 29.2419Z" stroke="black" stroke-width="2" mask="url(#path-1-inside-1_238_92)"/>
<path d="M83.5484 29.2419C83.5484 31.5491 81.6781 33.4194 79.371 33.4194C77.0638 33.4194 75.1936 31.5491 75.1936 29.2419C75.1936 26.9348 77.0638 25.0645 79.371 25.0645C81.6781 25.0645 83.5484 26.9348 83.5484 29.2419Z" stroke="black" stroke-width="2" mask="url(#path-1-inside-1_238_92)"/>
<path d="M108.613 29.2419C108.613 31.5491 106.743 33.4194 104.435 33.4194C102.128 33.4194 100.258 31.5491 100.258 29.2419C100.258 26.9348 102.128 25.0645 104.435 25.0645C106.743 25.0645 108.613 26.9348 108.613 29.2419Z" stroke="black" stroke-width="2" mask="url(#path-1-inside-1_238_92)"/>
<path d="M133.677 29.2419C133.677 31.5491 131.807 33.4194 129.5 33.4194C127.193 33.4194 125.323 31.5491 125.323 29.2419C125.323 26.9348 127.193 25.0645 129.5 25.0645C131.807 25.0645 133.677 26.9348 133.677 29.2419Z" stroke="black" stroke-width="2" mask="url(#path-1-inside-1_238_92)"/>
<path d="M158.742 29.2419C158.742 31.5491 156.872 33.4194 154.565 33.4194C152.257 33.4194 150.387 31.5491 150.387 29.2419C150.387 26.9348 152.257 25.0645 154.565 25.0645C156.872 25.0645 158.742 26.9348 158.742 29.2419Z" stroke="black" stroke-width="2" mask="url(#path-1-inside-1_238_92)"/>
<path d="M183.806 29.2419C183.806 31.5491 181.936 33.4194 179.629 33.4194C177.322 33.4194 175.452 31.5491 175.452 29.2419C175.452 26.9348 177.322 25.0645 179.629 25.0645C181.936 25.0645 183.806 26.9348 183.806 29.2419Z" stroke="black" stroke-width="2" mask="url(#path-1-inside-1_238_92)"/>
<path d="M208.871 29.2419C208.871 31.5491 207.001 33.4194 204.694 33.4194C202.386 33.4194 200.516 31.5491 200.516 29.2419C200.516 26.9348 202.386 25.0645 204.694 25.0645C207.001 25.0645 208.871 26.9348 208.871 29.2419Z" stroke="black" stroke-width="2" mask="url(#path-1-inside-1_238_92)"/>
<path d="M233.935 29.2419C233.935 31.5491 232.065 33.4194 229.758 33.4194C227.451 33.4194 225.581 31.5491 225.581 29.2419C225.581 26.9348 227.451 25.0645 229.758 25.0645C232.065 25.0645 233.935 26.9348 233.935 29.2419Z" stroke="black" stroke-width="2" mask="url(#path-1-inside-1_238_92)"/>
<path d="M259 29.2419C259 31.5491 257.13 33.4194 254.823 33.4194C252.515 33.4194 250.645 31.5491 250.645 29.2419C250.645 26.9348 252.515 25.0645 254.823 25.0645C257.13 25.0645 259 26.9348 259 29.2419Z" stroke="black" stroke-width="2" mask="url(#path-1-inside-1_238_92)"/>
<path d="M8.35484 54.3064C8.35484 56.6136 6.48454 58.4839 4.17742 58.4839C1.87029 58.4839 0 56.6136 0 54.3064C0 51.9993 1.87029 50.129 4.17742 50.129C6.48454 50.129 8.35484 51.9993 8.35484 54.3064Z" stroke="black" stroke-width="2" mask="url(#path-1-inside-1_238_92)"/>
<path d="M33.4194 54.3064C33.4194 56.6136 31.5491 58.4839 29.2419 58.4839C26.9348 58.4839 25.0645 56.6136 25.0645 54.3064C25.0645 51.9993 26.9348 50.129 29.2419 50.129C31.5491 50.129 33.4194 51.9993 33.4194 54.3064Z" stroke="black" stroke-width="2" mask="url(#path-1-inside-1_238_92)"/>
<path d="M58.4839 54.3064C58.4839 56.6136 56.6136 58.4839 54.3064 58.4839C51.9993 58.4839 50.129 56.6136 50.129 54.3064C50.129 51.9993 51.9993 50.129 54.3064 50.129C56.6136 50.129 58.4839 51.9993 58.4839 54.3064Z" stroke="black" stroke-width="2" mask="url(#path-1-inside-1_238_92)"/>
<path d="M83.5484 54.3064C83.5484 56.6136 81.6781 58.4839 79.371 58.4839C77.0638 58.4839 75.1936 56.6136 75.1936 54.3064C75.1936 51.9993 77.0638 50.129 79.371 50.129C81.6781 50.129 83.5484 51.9993 83.5484 54.3064Z" stroke="black" stroke-width="2" mask="url(#path-1-inside-1_238_92)"/>
<path d="M108.613 54.3064C108.613 56.6136 106.743 58.4839 104.435 58.4839C102.128 58.4839 100.258 56.6136 100.258 54.3064C100.258 51.9993 102.128 50.129 104.435 50.129C106.743 50.129 108.613 51.9993 108.613 54.3064Z" stroke="black" stroke-width="2" mask="url(#path-1-inside-1_238_92)"/>
<path d="M133.677 54.3064C133.677 56.6136 131.807 58.4839 129.5 58.4839C127.193 58.4839 125.323 56.6136 125.323 54.3064C125.323 51.9993 127.193 50.129 129.5 50.129C131.807 50.129 133.677 51.9993 133.677 54.3064Z" stroke="black" stroke-width="2" mask="url(#path-1-inside-1_238_92)"/>
<path d="M158.742 54.3064C158.742 56.6136 156.872 58.4839 154.565 58.4839C152.257 58.4839 150.387 56.6136 150.387 54.3064C150.387 51.9993 152.257 50.129 154.565 50.129C156.872 50.129 158.742 51.9993 158.742 54.3064Z" stroke="black" stroke-width="2" mask="url(#path-1-inside-1_238_92)"/>
<path d="M183.806 54.3064C183.806 56.6136 181.936 58.4839 179.629 58.4839C177.322 58.4839 175.452 56.6136 175.452 54.3064C175.452 51.9993 177.322 50.129 179.629 50.129C181.936 50.129 183.806 51.9993 183.806 54.3064Z" stroke="black" stroke-width="2" mask="url(#path-1-inside-1_238_92)"/>
<path d="M208.871 54.3064C208.871 56.6136 207.001 58.4839 204.694 58.4839C202.386 58.4839 200.516 56.6136 200.516 54.3064C200.516 51.9993 202.386 50.129 204.694 50.129C207.001 50.129 208.871 51.9993 208.871 54.3064Z" stroke="black" stroke-width="2" mask="url(#path-1-inside-1_238_92)"/>
<path d="M233.935 54.3064C233.935 56.6136 232.065 58.4839 229.758 58.4839C227.451 58.4839 225.581 56.6136 225.581 54.3064C225.581 51.9993 227.451 50.129 229.758 50.129C232.065 50.129 233.935 51.9993 233.935 54.3064Z" stroke="black" stroke-width="2" mask="url(#path-1-inside-1_238_92)"/>
<path d="M259 54.3064C259 56.6136 257.13 58.4839 254.823 58.4839C252.515 58.4839 250.645 56.6136 250.645 54.3064C250.645 51.9993 252.515 50.129 254.823 50.129C257.13 50.129 259 51.9993 259 54.3064Z" stroke="black" stroke-width="2" mask="url(#path-1-inside-1_238_92)"/>
<path d="M8.35484 79.371C8.35484 81.6781 6.48454 83.5484 4.17742 83.5484C1.87029 83.5484 0 81.6781 0 79.371C0 77.0638 1.87029 75.1936 4.17742 75.1936C6.48454 75.1936 8.35484 77.0638 8.35484 79.371Z" stroke="black" stroke-width="2" mask="url(#path-1-inside-1_238_92)"/>
<path d="M33.4194 79.371C33.4194 81.6781 31.5491 83.5484 29.2419 83.5484C26.9348 83.5484 25.0645 81.6781 25.0645 79.371C25.0645 77.0638 26.9348 75.1936 29.2419 75.1936C31.5491 75.1936 33.4194 77.0638 33.4194 79.371Z" stroke="black" stroke-width="2" mask="url(#path-1-inside-1_238_92)"/>
<path d="M58.4839 79.371C58.4839 81.6781 56.6136 83.5484 54.3064 83.5484C51.9993 83.5484 50.129 81.6781 50.129 79.371C50.129 77.0638 51.9993 75.1936 54.3064 75.1936C56.6136 75.1936 58.4839 77.0638 58.4839 79.371Z" stroke="black" stroke-width="2" mask="url(#path-1-inside-1_238_92)"/>
<path d="M83.5484 79.371C83.5484 81.6781 81.6781 83.5484 79.371 83.5484C77.0638 83.5484 75.1936 81.6781 75.1936 79.371C75.1936 77.0638 77.0638 75.1936 79.371 75.1936C81.6781 75.1936 83.5484 77.0638 83.5484 79.371Z" stroke="black" stroke-width="2" mask="url(#path-1-inside-1_238_92)"/>
<path d="M108.613 79.371C108.613 81.6781 106.743 83.5484 104.435 83.5484C102.128 83.5484 100.258 81.6781 100.258 79.371C100.258 77.0638 102.128 75.1936 104.435 75.1936C106.743 75.1936 108.613 77.0638 108.613 79.371Z" stroke="black" stroke-width="2" mask="url(#path-1-inside-1_238_92)"/>
<path d="M133.677 79.371C133.677 81.6781 131.807 83.5484 129.5 83.5484C127.193 83.5484 125.323 81.6781 125.323 79.371C125.323 77.0638 127.193 75.1936 129.5 75.1936C131.807 75.1936 133.677 77.0638 133.677 79.371Z" stroke="black" stroke-width="2" mask="url(#path-1-inside-1_238_92)"/>
<path d="M158.742 79.371C158.742 81.6781 156.872 83.5484 154.565 83.5484C152.257 83.5484 150.387 81.6781 150.387 79.371C150.387 77.0638 152.257 75.1936 154.565 75.1936C156.872 75.1936 158.742 77.0638 158.742 79.371Z" stroke="black" stroke-width="2" mask="url(#path-1-inside-1_238_92)"/>
<path d="M183.806 79.371C183.806 81.6781 181.936 83.5484 179.629 83.5484C177.322 83.5484 175.452 81.6781 175.452 79.371C175.452 77.0638 177.322 75.1936 179.629 75.1936C181.936 75.1936 183.806 77.0638 183.806 79.371Z" stroke="black" stroke-width="2" mask="url(#path-1-inside-1_238_92)"/>
<path d="M208.871 79.371C208.871 81.6781 207.001 83.5484 204.694 83.5484C202.386 83.5484 200.516 81.6781 200.516 79.371C200.516 77.0638 202.386 75.1936 204.694 75.1936C207.001 75.1936 208.871 77.0638 208.871 79.371Z" stroke="black" stroke-width="2" mask="url(#path-1-inside-1_238_92)"/>
<path d="M233.935 79.371C233.935 81.6781 232.065 83.5484 229.758 83.5484C227.451 83.5484 225.581 81.6781 225.581 79.371C225.581 77.0638 227.451 75.1936 229.758 75.1936C232.065 75.1936 233.935 77.0638 233.935 79.371Z" stroke="black" stroke-width="2" mask="url(#path-1-inside-1_238_92)"/>
<path d="M259 79.371C259 81.6781 257.13 83.5484 254.823 83.5484C252.515 83.5484 250.645 81.6781 250.645 79.371C250.645 77.0638 252.515 75.1936 254.823 75.1936C257.13 75.1936 259 77.0638 259 79.371Z" stroke="black" stroke-width="2" mask="url(#path-1-inside-1_238_92)"/>
<path d="M8.35484 104.435C8.35484 106.743 6.48454 108.613 4.17742 108.613C1.87029 108.613 0 106.743 0 104.435C0 102.128 1.87029 100.258 4.17742 100.258C6.48454 100.258 8.35484 102.128 8.35484 104.435Z" stroke="black" stroke-width="2" mask="url(#path-1-inside-1_238_92)"/>
<path d="M33.4194 104.435C33.4194 106.743 31.5491 108.613 29.2419 108.613C26.9348 108.613 25.0645 106.743 25.0645 104.435C25.0645 102.128 26.9348 100.258 29.2419 100.258C31.5491 100.258 33.4194 102.128 33.4194 104.435Z" stroke="black" stroke-width="2" mask="url(#path-1-inside-1_238_92)"/>
<path d="M58.4839 104.435C58.4839 106.743 56.6136 108.613 54.3064 108.613C51.9993 108.613 50.129 106.743 50.129 104.435C50.129 102.128 51.9993 100.258 54.3064 100.258C56.6136 100.258 58.4839 102.128 58.4839 104.435Z" stroke="black" stroke-width="2" mask="url(#path-1-inside-1_238_92)"/>
<path d="M83.5484 104.435C83.5484 106.743 81.6781 108.613 79.371 108.613C77.0638 108.613 75.1936 106.743 75.1936 104.435C75.1936 102.128 77.0638 100.258 79.371 100.258C81.6781 100.258 83.5484 102.128 83.5484 104.435Z" stroke="black" stroke-width="2" mask="url(#path-1-inside-1_238_92)"/>
<path d="M108.613 104.435C108.613 106.743 106.743 108.613 104.435 108.613C102.128 108.613 100.258 106.743 100.258 104.435C100.258 102.128 102.128 100.258 104.435 100.258C106.743 100.258 108.613 102.128 108.613 104.435Z" stroke="black" stroke-width="2" mask="url(#path-1-inside-1_238_92)"/>
<path d="M133.677 104.435C133.677 106.743 131.807 108.613 129.5 108.613C127.193 108.613 125.323 106.743 125.323 104.435C125.323 102.128 127.193 100.258 129.5 100.258C131.807 100.258 133.677 102.128 133.677 104.435Z" stroke="black" stroke-width="2" mask="url(#path-1-inside-1_238_92)"/>
<path d="M158.742 104.435C158.742 106.743 156.872 108.613 154.565 108.613C152.257 108.613 150.387 106.743 150.387 104.435C150.387 102.128 152.257 100.258 154.565 100.258C156.872 100.258 158.742 102.128 158.742 104.435Z" stroke="black" stroke-width="2" mask="url(#path-1-inside-1_238_92)"/>
<path d="M183.806 104.435C183.806 106.743 181.936 108.613 179.629 108.613C177.322 108.613 175.452 106.743 175.452 104.435C175.452 102.128 177.322 100.258 179.629 100.258C181.936 100.258 183.806 102.128 183.806 104.435Z" stroke="black" stroke-width="2" mask="url(#path-1-inside-1_238_92)"/>
<path d="M208.871 104.435C208.871 106.743 207.001 108.613 204.694 108.613C202.386 108.613 200.516 106.743 200.516 104.435C200.516 102.128 202.386 100.258 204.694 100.258C207.001 100.258 208.871 102.128 208.871 104.435Z" stroke="black" stroke-width="2" mask="url(#path-1-inside-1_238_92)"/>
<path d="M233.935 104.435C233.935 106.743 232.065 108.613 229.758 108.613C227.451 108.613 225.581 106.743 225.581 104.435C225.581 102.128 227.451 100.258 229.758 100.258C232.065 100.258 233.935 102.128 233.935 104.435Z" stroke="black" stroke-width="2" mask="url(#path-1-inside-1_238_92)"/>
<path d="M259 104.435C259 106.743 257.13 108.613 254.823 108.613C252.515 108.613 250.645 106.743 250.645 104.435C250.645 102.128 252.515 100.258 254.823 100.258C257.13 100.258 259 102.128 259 104.435Z" stroke="black" stroke-width="2" mask="url(#path-1-inside-1_238_92)"/>
<path d="M8.35484 129.5C8.35484 131.807 6.48454 133.677 4.17742 133.677C1.87029 133.677 0 131.807 0 129.5C0 127.193 1.87029 125.323 4.17742 125.323C6.48454 125.323 8.35484 127.193 8.35484 129.5Z" stroke="black" stroke-width="2" mask="url(#path-1-inside-1_238_92)"/>
<path d="M33.4194 129.5C33.4194 131.807 31.5491 133.677 29.2419 133.677C26.9348 133.677 25.0645 131.807 25.0645 129.5C25.0645 127.193 26.9348 125.323 29.2419 125.323C31.5491 125.323 33.4194 127.193 33.4194 129.5Z" stroke="black" stroke-width="2" mask="url(#path-1-inside-1_238_92)"/>
<path d="M58.4839 129.5C58.4839 131.807 56.6136 133.677 54.3064 133.677C51.9993 133.677 50.129 131.807 50.129 129.5C50.129 127.193 51.9993 125.323 54.3064 125.323C56.6136 125.323 58.4839 127.193 58.4839 129.5Z" stroke="black" stroke-width="2" mask="url(#path-1-inside-1_238_92)"/>
<path d="M83.5484 129.5C83.5484 131.807 81.6781 133.677 79.371 133.677C77.0638 133.677 75.1936 131.807 75.1936 129.5C75.1936 127.193 77.0638 125.323 79.371 125.323C81.6781 125.323 83.5484 127.193 83.5484 129.5Z" stroke="black" stroke-width="2" mask="url(#path-1-inside-1_238_92)"/>
<path d="M108.613 129.5C108.613 131.807 106.743 133.677 104.435 133.677C102.128 133.677 100.258 131.807 100.258 129.5C100.258 127.193 102.128 125.323 104.435 125.323C106.743 125.323 108.613 127.193 108.613 129.5Z" stroke="black" stroke-width="2" mask="url(#path-1-inside-1_238_92)"/>
<path d="M133.677 129.5C133.677 131.807 131.807 133.677 129.5 133.677C127.193 133.677 125.323 131.807 125.323 129.5C125.323 127.193 127.193 125.323 129.5 125.323C131.807 125.323 133.677 127.193 133.677 129.5Z" stroke="black" stroke-width="2" mask="url(#path-1-inside-1_238_92)"/>
<path d="M158.742 129.5C158.742 131.807 156.872 133.677 154.565 133.677C152.257 133.677 150.387 131.807 150.387 129.5C150.387 127.193 152.257 125.323 154.565 125.323C156.872 125.323 158.742 127.193 158.742 129.5Z" stroke="black" stroke-width="2" mask="url(#path-1-inside-1_238_92)"/>
<path d="M183.806 129.5C183.806 131.807 181.936 133.677 179.629 133.677C177.322 133.677 175.452 131.807 175.452 129.5C175.452 127.193 177.322 125.323 179.629 125.323C181.936 125.323 183.806 127.193 183.806 129.5Z" stroke="black" stroke-width="2" mask="url(#path-1-inside-1_238_92)"/>
<path d="M208.871 129.5C208.871 131.807 207.001 133.677 204.694 133.677C202.386 133.677 200.516 131.807 200.516 129.5C200.516 127.193 202.386 125.323 204.694 125.323C207.001 125.323 208.871 127.193 208.871 129.5Z" stroke="black" stroke-width="2" mask="url(#path-1-inside-1_238_92)"/>
<path d="M233.935 129.5C233.935 131.807 232.065 133.677 229.758 133.677C227.451 133.677 225.581 131.807 225.581 129.5C225.581 127.193 227.451 125.323 229.758 125.323C232.065 125.323 233.935 127.193 233.935 129.5Z" stroke="black" stroke-width="2" mask="url(#path-1-inside-1_238_92)"/>
<path d="M259 129.5C259 131.807 257.13 133.677 254.823 133.677C252.515 133.677 250.645 131.807 250.645 129.5C250.645 127.193 252.515 125.323 254.823 125.323C257.13 125.323 259 127.193 259 129.5Z" stroke="black" stroke-width="2" mask="url(#path-1-inside-1_238_92)"/>
<path d="M8.35484 154.565C8.35484 156.872 6.48454 158.742 4.17742 158.742C1.87029 158.742 0 156.872 0 154.565C0 152.257 1.87029 150.387 4.17742 150.387C6.48454 150.387 8.35484 152.257 8.35484 154.565Z" stroke="black" stroke-width="2" mask="url(#path-1-inside-1_238_92)"/>
<path d="M33.4194 154.565C33.4194 156.872 31.5491 158.742 29.2419 158.742C26.9348 158.742 25.0645 156.872 25.0645 154.565C25.0645 152.257 26.9348 150.387 29.2419 150.387C31.5491 150.387 33.4194 152.257 33.4194 154.565Z" stroke="black" stroke-width="2" mask="url(#path-1-inside-1_238_92)"/>
<path d="M58.4839 154.565C58.4839 156.872 56.6136 158.742 54.3064 158.742C51.9993 158.742 50.129 156.872 50.129 154.565C50.129 152.257 51.9993 150.387 54.3064 150.387C56.6136 150.387 58.4839 152.257 58.4839 154.565Z" stroke="black" stroke-width="2" mask="url(#path-1-inside-1_238_92)"/>
<path d="M83.5484 154.565C83.5484 156.872 81.6781 158.742 79.371 158.742C77.0638 158.742 75.1936 156.872 75.1936 154.565C75.1936 152.257 77.0638 150.387 79.371 150.387C81.6781 150.387 83.5484 152.257 83.5484 154.565Z" stroke="black" stroke-width="2" mask="url(#path-1-inside-1_238_92)"/>
<path d="M108.613 154.565C108.613 156.872 106.743 158.742 104.435 158.742C102.128 158.742 100.258 156.872 100.258 154.565C100.258 152.257 102.128 150.387 104.435 150.387C106.743 150.387 108.613 152.257 108.613 154.565Z" stroke="black" stroke-width="2" mask="url(#path-1-inside-1_238_92)"/>
<path d="M133.677 154.565C133.677 156.872 131.807 158.742 129.5 158.742C127.193 158.742 125.323 156.872 125.323 154.565C125.323 152.257 127.193 150.387 129.5 150.387C131.807 150.387 133.677 152.257 133.677 154.565Z" stroke="black" stroke-width="2" mask="url(#path-1-inside-1_238_92)"/>
<path d="M158.742 154.565C158.742 156.872 156.872 158.742 154.565 158.742C152.257 158.742 150.387 156.872 150.387 154.565C150.387 152.257 152.257 150.387 154.565 150.387C156.872 150.387 158.742 152.257 158.742 154.565Z" stroke="black" stroke-width="2" mask="url(#path-1-inside-1_238_92)"/>
<path d="M183.806 154.565C183.806 156.872 181.936 158.742 179.629 158.742C177.322 158.742 175.452 156.872 175.452 154.565C175.452 152.257 177.322 150.387 179.629 150.387C181.936 150.387 183.806 152.257 183.806 154.565Z" stroke="black" stroke-width="2" mask="url(#path-1-inside-1_238_92)"/>
<path d="M208.871 154.565C208.871 156.872 207.001 158.742 204.694 158.742C202.386 158.742 200.516 156.872 200.516 154.565C200.516 152.257 202.386 150.387 204.694 150.387C207.001 150.387 208.871 152.257 208.871 154.565Z" stroke="black" stroke-width="2" mask="url(#path-1-inside-1_238_92)"/>
<path d="M233.935 154.565C233.935 156.872 232.065 158.742 229.758 158.742C227.451 158.742 225.581 156.872 225.581 154.565C225.581 152.257 227.451 150.387 229.758 150.387C232.065 150.387 233.935 152.257 233.935 154.565Z" stroke="black" stroke-width="2" mask="url(#path-1-inside-1_238_92)"/>
<path d="M259 154.565C259 156.872 257.13 158.742 254.823 158.742C252.515 158.742 250.645 156.872 250.645 154.565C250.645 152.257 252.515 150.387 254.823 150.387C257.13 150.387 259 152.257 259 154.565Z" stroke="black" stroke-width="2" mask="url(#path-1-inside-1_238_92)"/>
<path d="M8.35484 179.629C8.35484 181.936 6.48454 183.806 4.17742 183.806C1.87029 183.806 0 181.936 0 179.629C0 177.322 1.87029 175.452 4.17742 175.452C6.48454 175.452 8.35484 177.322 8.35484 179.629Z" stroke="black" stroke-width="2" mask="url(#path-1-inside-1_238_92)"/>
<path d="M33.4194 179.629C33.4194 181.936 31.5491 183.806 29.2419 183.806C26.9348 183.806 25.0645 181.936 25.0645 179.629C25.0645 177.322 26.9348 175.452 29.2419 175.452C31.5491 175.452 33.4194 177.322 33.4194 179.629Z" stroke="black" stroke-width="2" mask="url(#path-1-inside-1_238_92)"/>
<path d="M58.4839 179.629C58.4839 181.936 56.6136 183.806 54.3064 183.806C51.9993 183.806 50.129 181.936 50.129 179.629C50.129 177.322 51.9993 175.452 54.3064 175.452C56.6136 175.452 58.4839 177.322 58.4839 179.629Z" stroke="black" stroke-width="2" mask="url(#path-1-inside-1_238_92)"/>
<path d="M83.5484 179.629C83.5484 181.936 81.6781 183.806 79.371 183.806C77.0638 183.806 75.1936 181.936 75.1936 179.629C75.1936 177.322 77.0638 175.452 79.371 175.452C81.6781 175.452 83.5484 177.322 83.5484 179.629Z" stroke="black" stroke-width="2" mask="url(#path-1-inside-1_238_92)"/>
<path d="M108.613 179.629C108.613 181.936 106.743 183.806 104.435 183.806C102.128 183.806 100.258 181.936 100.258 179.629C100.258 177.322 102.128 175.452 104.435 175.452C106.743 175.452 108.613 177.322 108.613 179.629Z" stroke="black" stroke-width="2" mask="url(#path-1-inside-1_238_92)"/>
<path d="M133.677 179.629C133.677 181.936 131.807 183.806 129.5 183.806C127.193 183.806 125.323 181.936 125.323 179.629C125.323 177.322 127.193 175.452 129.5 175.452C131.807 175.452 133.677 177.322 133.677 179.629Z" stroke="black" stroke-width="2" mask="url(#path-1-inside-1_238_92)"/>
<path d="M158.742 179.629C158.742 181.936 156.872 183.806 154.565 183.806C152.257 183.806 150.387 181.936 150.387 179.629C150.387 177.322 152.257 175.452 154.565 175.452C156.872 175.452 158.742 177.322 158.742 179.629Z" stroke="black" stroke-width="2" mask="url(#path-1-inside-1_238_92)"/>
<path d="M183.806 179.629C183.806 181.936 181.936 183.806 179.629 183.806C177.322 183.806 175.452 181.936 175.452 179.629C175.452 177.322 177.322 175.452 179.629 175.452C181.936 175.452 183.806 177.322 183.806 179.629Z" stroke="black" stroke-width="2" mask="url(#path-1-inside-1_238_92)"/>
<path d="M208.871 179.629C208.871 181.936 207.001 183.806 204.694 183.806C202.386 183.806 200.516 181.936 200.516 179.629C200.516 177.322 202.386 175.452 204.694 175.452C207.001 175.452 208.871 177.322 208.871 179.629Z" stroke="black" stroke-width="2" mask="url(#path-1-inside-1_238_92)"/>
<path d="M233.935 179.629C233.935 181.936 232.065 183.806 229.758 183.806C227.451 183.806 225.581 181.936 225.581 179.629C225.581 177.322 227.451 175.452 229.758 175.452C232.065 175.452 233.935 177.322 233.935 179.629Z" stroke="black" stroke-width="2" mask="url(#path-1-inside-1_238_92)"/>
<path d="M259 179.629C259 181.936 257.13 183.806 254.823 183.806C252.515 183.806 250.645 181.936 250.645 179.629C250.645 177.322 252.515 175.452 254.823 175.452C257.13 175.452 259 177.322 259 179.629Z" stroke="black" stroke-width="2" mask="url(#path-1-inside-1_238_92)"/>
<path d="M8.35484 204.694C8.35484 207.001 6.48454 208.871 4.17742 208.871C1.87029 208.871 0 207.001 0 204.694C0 202.386 1.87029 200.516 4.17742 200.516C6.48454 200.516 8.35484 202.386 8.35484 204.694Z" stroke="black" stroke-width="2" mask="url(#path-1-inside-1_238_92)"/>
<path d="M33.4194 204.694C33.4194 207.001 31.5491 208.871 29.2419 208.871C26.9348 208.871 25.0645 207.001 25.0645 204.694C25.0645 202.386 26.9348 200.516 29.2419 200.516C31.5491 200.516 33.4194 202.386 33.4194 204.694Z" stroke="black" stroke-width="2" mask="url(#path-1-inside-1_238_92)"/>
<path d="M58.4839 204.694C58.4839 207.001 56.6136 208.871 54.3064 208.871C51.9993 208.871 50.129 207.001 50.129 204.694C50.129 202.386 51.9993 200.516 54.3064 200.516C56.6136 200.516 58.4839 202.386 58.4839 204.694Z" stroke="black" stroke-width="2" mask="url(#path-1-inside-1_238_92)"/>
<path d="M83.5484 204.694C83.5484 207.001 81.6781 208.871 79.371 208.871C77.0638 208.871 75.1936 207.001 75.1936 204.694C75.1936 202.386 77.0638 200.516 79.371 200.516C81.6781 200.516 83.5484 202.386 83.5484 204.694Z" stroke="black" stroke-width="2" mask="url(#path-1-inside-1_238_92)"/>
<path d="M108.613 204.694C108.613 207.001 106.743 208.871 104.435 208.871C102.128 208.871 100.258 207.001 100.258 204.694C100.258 202.386 102.128 200.516 104.435 200.516C106.743 200.516 108.613 202.386 108.613 204.694Z" stroke="black" stroke-width="2" mask="url(#path-1-inside-1_238_92)"/>
<path d="M133.677 204.694C133.677 207.001 131.807 208.871 129.5 208.871C127.193 208.871 125.323 207.001 125.323 204.694C125.323 202.386 127.193 200.516 129.5 200.516C131.807 200.516 133.677 202.386 133.677 204.694Z" stroke="black" stroke-width="2" mask="url(#path-1-inside-1_238_92)"/>
<path d="M158.742 204.694C158.742 207.001 156.872 208.871 154.565 208.871C152.257 208.871 150.387 207.001 150.387 204.694C150.387 202.386 152.257 200.516 154.565 200.516C156.872 200.516 158.742 202.386 158.742 204.694Z" stroke="black" stroke-width="2" mask="url(#path-1-inside-1_238_92)"/>
<path d="M183.806 204.694C183.806 207.001 181.936 208.871 179.629 208.871C177.322 208.871 175.452 207.001 175.452 204.694C175.452 202.386 177.322 200.516 179.629 200.516C181.936 200.516 183.806 202.386 183.806 204.694Z" stroke="black" stroke-width="2" mask="url(#path-1-inside-1_238_92)"/>
<path d="M208.871 204.694C208.871 207.001 207.001 208.871 204.694 208.871C202.386 208.871 200.516 207.001 200.516 204.694C200.516 202.386 202.386 200.516 204.694 200.516C207.001 200.516 208.871 202.386 208.871 204.694Z" stroke="black" stroke-width="2" mask="url(#path-1-inside-1_238_92)"/>
<path d="M233.935 204.694C233.935 207.001 232.065 208.871 229.758 208.871C227.451 208.871 225.581 207.001 225.581 204.694C225.581 202.386 227.451 200.516 229.758 200.516C232.065 200.516 233.935 202.386 233.935 204.694Z" stroke="black" stroke-width="2" mask="url(#path-1-inside-1_238_92)"/>
<path d="M259 204.694C259 207.001 257.13 208.871 254.823 208.871C252.515 208.871 250.645 207.001 250.645 204.694C250.645 202.386 252.515 200.516 254.823 200.516C257.13 200.516 259 202.386 259 204.694Z" stroke="black" stroke-width="2" mask="url(#path-1-inside-1_238_92)"/>
<path d="M8.35484 229.758C8.35484 232.065 6.48454 233.935 4.17742 233.935C1.87029 233.935 0 232.065 0 229.758C0 227.451 1.87029 225.581 4.17742 225.581C6.48454 225.581 8.35484 227.451 8.35484 229.758Z" stroke="black" stroke-width="2" mask="url(#path-1-inside-1_238_92)"/>
<path d="M33.4194 229.758C33.4194 232.065 31.5491 233.935 29.2419 233.935C26.9348 233.935 25.0645 232.065 25.0645 229.758C25.0645 227.451 26.9348 225.581 29.2419 225.581C31.5491 225.581 33.4194 227.451 33.4194 229.758Z" stroke="black" stroke-width="2" mask="url(#path-1-inside-1_238_92)"/>
<path d="M58.4839 229.758C58.4839 232.065 56.6136 233.935 54.3064 233.935C51.9993 233.935 50.129 232.065 50.129 229.758C50.129 227.451 51.9993 225.581 54.3064 225.581C56.6136 225.581 58.4839 227.451 58.4839 229.758Z" stroke="black" stroke-width="2" mask="url(#path-1-inside-1_238_92)"/>
<path d="M83.5484 229.758C83.5484 232.065 81.6781 233.935 79.371 233.935C77.0638 233.935 75.1936 232.065 75.1936 229.758C75.1936 227.451 77.0638 225.581 79.371 225.581C81.6781 225.581 83.5484 227.451 83.5484 229.758Z" stroke="black" stroke-width="2" mask="url(#path-1-inside-1_238_92)"/>
<path d="M108.613 229.758C108.613 232.065 106.743 233.935 104.435 233.935C102.128 233.935 100.258 232.065 100.258 229.758C100.258 227.451 102.128 225.581 104.435 225.581C106.743 225.581 108.613 227.451 108.613 229.758Z" stroke="black" stroke-width="2" mask="url(#path-1-inside-1_238_92)"/>
<path d="M133.677 229.758C133.677 232.065 131.807 233.935 129.5 233.935C127.193 233.935 125.323 232.065 125.323 229.758C125.323 227.451 127.193 225.581 129.5 225.581C131.807 225.581 133.677 227.451 133.677 229.758Z" stroke="black" stroke-width="2" mask="url(#path-1-inside-1_238_92)"/>
<path d="M158.742 229.758C158.742 232.065 156.872 233.935 154.565 233.935C152.257 233.935 150.387 232.065 150.387 229.758C150.387 227.451 152.257 225.581 154.565 225.581C156.872 225.581 158.742 227.451 158.742 229.758Z" stroke="black" stroke-width="2" mask="url(#path-1-inside-1_238_92)"/>
<path d="M183.806 229.758C183.806 232.065 181.936 233.935 179.629 233.935C177.322 233.935 175.452 232.065 175.452 229.758C175.452 227.451 177.322 225.581 179.629 225.581C181.936 225.581 183.806 227.451 183.806 229.758Z" stroke="black" stroke-width="2" mask="url(#path-1-inside-1_238_92)"/>
<path d="M208.871 229.758C208.871 232.065 207.001 233.935 204.694 233.935C202.386 233.935 200.516 232.065 200.516 229.758C200.516 227.451 202.386 225.581 204.694 225.581C207.001 225.581 208.871 227.451 208.871 229.758Z" stroke="black" stroke-width="2" mask="url(#path-1-inside-1_238_92)"/>
<path d="M233.935 229.758C233.935 232.065 232.065 233.935 229.758 233.935C227.451 233.935 225.581 232.065 225.581 229.758C225.581 227.451 227.451 225.581 229.758 225.581C232.065 225.581 233.935 227.451 233.935 229.758Z" stroke="black" stroke-width="2" mask="url(#path-1-inside-1_238_92)"/>
<path d="M259 229.758C259 232.065 257.13 233.935 254.823 233.935C252.515 233.935 250.645 232.065 250.645 229.758C250.645 227.451 252.515 225.581 254.823 225.581C257.13 225.581 259 227.451 259 229.758Z" stroke="black" stroke-width="2" mask="url(#path-1-inside-1_238_92)"/>
<path d="M8.35484 254.823C8.35484 257.13 6.48454 259 4.17742 259C1.87029 259 0 257.13 0 254.823C0 252.515 1.87029 250.645 4.17742 250.645C6.48454 250.645 8.35484 252.515 8.35484 254.823Z" stroke="black" stroke-width="2" mask="url(#path-1-inside-1_238_92)"/>
<path d="M33.4194 254.823C33.4194 257.13 31.5491 259 29.2419 259C26.9348 259 25.0645 257.13 25.0645 254.823C25.0645 252.515 26.9348 250.645 29.2419 250.645C31.5491 250.645 33.4194 252.515 33.4194 254.823Z" stroke="black" stroke-width="2" mask="url(#path-1-inside-1_238_92)"/>
<path d="M58.4839 254.823C58.4839 257.13 56.6136 259 54.3064 259C51.9993 259 50.129 257.13 50.129 254.823C50.129 252.515 51.9993 250.645 54.3064 250.645C56.6136 250.645 58.4839 252.515 58.4839 254.823Z" stroke="black" stroke-width="2" mask="url(#path-1-inside-1_238_92)"/>
<path d="M83.5484 254.823C83.5484 257.13 81.6781 259 79.371 259C77.0638 259 75.1936 257.13 75.1936 254.823C75.1936 252.515 77.0638 250.645 79.371 250.645C81.6781 250.645 83.5484 252.515 83.5484 254.823Z" stroke="black" stroke-width="2" mask="url(#path-1-inside-1_238_92)"/>
<path d="M108.613 254.823C108.613 257.13 106.743 259 104.435 259C102.128 259 100.258 257.13 100.258 254.823C100.258 252.515 102.128 250.645 104.435 250.645C106.743 250.645 108.613 252.515 108.613 254.823Z" stroke="black" stroke-width="2" mask="url(#path-1-inside-1_238_92)"/>
<path d="M133.677 254.823C133.677 257.13 131.807 259 129.5 259C127.193 259 125.323 257.13 125.323 254.823C125.323 252.515 127.193 250.645 129.5 250.645C131.807 250.645 133.677 252.515 133.677 254.823Z" stroke="black" stroke-width="2" mask="url(#path-1-inside-1_238_92)"/>
<path d="M158.742 254.823C158.742 257.13 156.872 259 154.565 259C152.257 259 150.387 257.13 150.387 254.823C150.387 252.515 152.257 250.645 154.565 250.645C156.872 250.645 158.742 252.515 158.742 254.823Z" stroke="black" stroke-width="2" mask="url(#path-1-inside-1_238_92)"/>
<path d="M183.806 254.823C183.806 257.13 181.936 259 179.629 259C177.322 259 175.452 257.13 175.452 254.823C175.452 252.515 177.322 250.645 179.629 250.645C181.936 250.645 183.806 252.515 183.806 254.823Z" stroke="black" stroke-width="2" mask="url(#path-1-inside-1_238_92)"/>
<path d="M208.871 254.823C208.871 257.13 207.001 259 204.694 259C202.386 259 200.516 257.13 200.516 254.823C200.516 252.515 202.386 250.645 204.694 250.645C207.001 250.645 208.871 252.515 208.871 254.823Z" stroke="black" stroke-width="2" mask="url(#path-1-inside-1_238_92)"/>
<path d="M233.935 254.823C233.935 257.13 232.065 259 229.758 259C227.451 259 225.581 257.13 225.581 254.823C225.581 252.515 227.451 250.645 229.758 250.645C232.065 250.645 233.935 252.515 233.935 254.823Z" stroke="black" stroke-width="2" mask="url(#path-1-inside-1_238_92)"/>
<path d="M259 254.823C259 257.13 257.13 259 254.823 259C252.515 259 250.645 257.13 250.645 254.823C250.645 252.515 252.515 250.645 254.823 250.645C257.13 250.645 259 252.515 259 254.823Z" stroke="black" stroke-width="2" mask="url(#path-1-inside-1_238_92)"/>
<path d="M8.35484 279.887C8.35484 282.194 6.48454 284.065 4.17742 284.065C1.87029 284.065 0 282.194 0 279.887C0 277.58 1.87029 275.71 4.17742 275.71C6.48454 275.71 8.35484 277.58 8.35484 279.887Z" stroke="black" stroke-width="2" mask="url(#path-1-inside-1_238_92)"/>
<path d="M33.4194 279.887C33.4194 282.194 31.5491 284.065 29.2419 284.065C26.9348 284.065 25.0645 282.194 25.0645 279.887C25.0645 277.58 26.9348 275.71 29.2419 275.71C31.5491 275.71 33.4194 277.58 33.4194 279.887Z" stroke="black" stroke-width="2" mask="url(#path-1-inside-1_238_92)"/>
<path d="M58.4839 279.887C58.4839 282.194 56.6136 284.065 54.3064 284.065C51.9993 284.065 50.129 282.194 50.129 279.887C50.129 277.58 51.9993 275.71 54.3064 275.71C56.6136 275.71 58.4839 277.58 58.4839 279.887Z" stroke="black" stroke-width="2" mask="url(#path-1-inside-1_238_92)"/>
<path d="M83.5484 279.887C83.5484 282.194 81.6781 284.065 79.371 284.065C77.0638 284.065 75.1936 282.194 75.1936 279.887C75.1936 277.58 77.0638 275.71 79.371 275.71C81.6781 275.71 83.5484 277.58 83.5484 279.887Z" stroke="black" stroke-width="2" mask="url(#path-1-inside-1_238_92)"/>
<path d="M108.613 279.887C108.613 282.194 106.743 284.065 104.435 284.065C102.128 284.065 100.258 282.194 100.258 279.887C100.258 277.58 102.128 275.71 104.435 275.71C106.743 275.71 108.613 277.58 108.613 279.887Z" stroke="black" stroke-width="2" mask="url(#path-1-inside-1_238_92)"/>
<path d="M133.677 279.887C133.677 282.194 131.807 284.065 129.5 284.065C127.193 284.065 125.323 282.194 125.323 279.887C125.323 277.58 127.193 275.71 129.5 275.71C131.807 275.71 133.677 277.58 133.677 279.887Z" stroke="black" stroke-width="2" mask="url(#path-1-inside-1_238_92)"/>
<path d="M158.742 279.887C158.742 282.194 156.872 284.065 154.565 284.065C152.257 284.065 150.387 282.194 150.387 279.887C150.387 277.58 152.257 275.71 154.565 275.71C156.872 275.71 158.742 277.58 158.742 279.887Z" stroke="black" stroke-width="2" mask="url(#path-1-inside-1_238_92)"/>
<path d="M183.806 279.887C183.806 282.194 181.936 284.065 179.629 284.065C177.322 284.065 175.452 282.194 175.452 279.887C175.452 277.58 177.322 275.71 179.629 275.71C181.936 275.71 183.806 277.58 183.806 279.887Z" stroke="black" stroke-width="2" mask="url(#path-1-inside-1_238_92)"/>
<path d="M208.871 279.887C208.871 282.194 207.001 284.065 204.694 284.065C202.386 284.065 200.516 282.194 200.516 279.887C200.516 277.58 202.386 275.71 204.694 275.71C207.001 275.71 208.871 277.58 208.871 279.887Z" stroke="black" stroke-width="2" mask="url(#path-1-inside-1_238_92)"/>
<path d="M233.935 279.887C233.935 282.194 232.065 284.065 229.758 284.065C227.451 284.065 225.581 282.194 225.581 279.887C225.581 277.58 227.451 275.71 229.758 275.71C232.065 275.71 233.935 277.58 233.935 279.887Z" stroke="black" stroke-width="2" mask="url(#path-1-inside-1_238_92)"/>
<path d="M259 279.887C259 282.194 257.13 284.065 254.823 284.065C252.515 284.065 250.645 282.194 250.645 279.887C250.645 277.58 252.515 275.71 254.823 275.71C257.13 275.71 259 277.58 259 279.887Z" stroke="black" stroke-width="2" mask="url(#path-1-inside-1_238_92)"/>
</svg>
