<svg width="698" height="344" viewBox="0 0 698 344" fill="none" xmlns="http://www.w3.org/2000/svg">
<rect width="698" height="344" rx="50" fill="#EBB4FF"/>
<path fill-rule="evenodd" clip-rule="evenodd" d="M290.875 102.25H407.125C410.207 102.254 413.162 103.48 415.341 105.659C417.52 107.838 418.746 110.793 418.75 113.875V230.125C418.746 233.207 417.52 236.162 415.341 238.341C413.162 240.52 410.207 241.746 407.125 241.75H290.875C287.793 241.746 284.838 240.52 282.659 238.341C280.48 236.162 279.254 233.207 279.25 230.125V113.875C279.254 110.793 280.48 107.838 282.659 105.659C284.838 103.48 287.793 102.254 290.875 102.25ZM360.625 137.125V113.875H337.375V137.125H360.625ZM290.875 113.875V230.125H407.132L407.125 113.875H372.25V148.75H325.75V113.875H290.875ZM337.375 183.625H302.5V195.25H337.375V183.625ZM360.625 206.875H302.5V218.5H360.625V206.875Z" fill="#F4F4F4"/>
</svg>
