<svg width="702" height="343" viewBox="0 0 702 343" fill="none" xmlns="http://www.w3.org/2000/svg">
<rect width="702" height="343" rx="50" fill="#71F78F"/>
<path fill-rule="evenodd" clip-rule="evenodd" d="M344.863 154.075C347.188 156.4 350.094 157.562 353 157.562C355.906 157.562 358.812 156.4 361.137 154.075L378.575 136.637C380.9 134.312 382.062 131.406 382.062 128.5C382.062 125.594 380.9 122.688 378.575 120.362L361.137 102.925C358.812 100.6 355.906 99.4375 353 99.4375C350.094 99.4375 347.188 100.6 344.863 102.925L327.425 120.362C325.1 122.688 323.938 125.594 323.938 128.5C323.938 131.406 325.1 134.312 327.425 136.637L344.863 154.075ZM335.562 128.5L353 111.062L370.438 128.5L353 145.938L335.562 128.5ZM391.363 200.575C393.688 202.9 396.594 204.062 399.5 204.062C402.406 204.062 405.312 202.9 407.637 200.575L425.075 183.137C427.4 180.812 428.562 177.906 428.562 175C428.562 172.094 427.4 169.188 425.075 166.863L407.637 149.425C405.312 147.1 402.406 145.938 399.5 145.938C396.594 145.938 393.688 147.1 391.363 149.425L373.925 166.863C371.6 169.188 370.438 172.094 370.438 175C370.438 177.906 371.6 180.812 373.925 183.137L391.363 200.575ZM382.062 175L399.5 157.562L416.938 175L399.5 192.438L382.062 175ZM353 250.562C350.094 250.562 347.188 249.4 344.863 247.075L327.425 229.637C325.1 227.312 323.938 224.406 323.938 221.5C323.938 218.594 325.1 215.688 327.425 213.363L344.863 195.925C347.188 193.6 350.094 192.438 353 192.438C355.906 192.438 358.812 193.6 361.137 195.925L378.575 213.363C380.9 215.688 382.062 218.594 382.062 221.5C382.062 224.406 380.9 227.312 378.575 229.637L361.137 247.075C358.812 249.4 355.906 250.562 353 250.562ZM353 204.062L335.562 221.5L353 238.938L370.438 221.5L353 204.062ZM298.362 200.575C300.688 202.9 303.594 204.062 306.5 204.062C309.406 204.062 312.312 202.9 314.637 200.575L332.075 183.137C334.4 180.812 335.562 177.906 335.562 175C335.562 172.094 334.4 169.188 332.075 166.863L314.637 149.425C312.312 147.1 309.406 145.938 306.5 145.938C303.594 145.938 300.688 147.1 298.362 149.425L280.925 166.863C278.6 169.188 277.438 172.094 277.438 175C277.438 177.906 278.6 180.812 280.925 183.137L298.362 200.575ZM289.062 175L306.5 157.562L323.938 175L306.5 192.438L289.062 175Z" fill="#F4F4F4"/>
</svg>
