<svg width="698" height="349" viewBox="0 0 698 349" fill="none" xmlns="http://www.w3.org/2000/svg">
<rect width="698" height="349" rx="50" fill="#59C3FF"/>
<path d="M401.312 96.625C388.43 96.6463 375.854 100.555 365.23 107.84C354.605 115.124 346.426 125.446 341.763 137.454C338.027 132.035 333.031 127.604 327.204 124.542C321.378 121.48 314.895 119.878 308.312 119.875H290.875V137.312C290.887 148.1 295.178 158.442 302.805 166.07C310.433 173.697 320.775 177.988 331.562 178H337.375V230.599C324.024 231.904 311.546 237.823 302.087 247.336L310.306 255.555C315.168 250.694 321.048 246.971 327.522 244.655C333.996 242.339 340.903 241.488 347.746 242.162C354.589 242.837 361.196 245.021 367.094 248.556C372.991 252.091 378.031 256.891 381.85 262.608L391.508 256.14C386.743 249.019 380.46 243.042 373.11 238.639C365.76 234.236 357.526 231.515 349 230.673V178H354.812C371.764 177.981 388.015 171.238 400.002 159.252C411.988 147.265 418.731 131.014 418.75 114.062V96.625H401.312ZM331.562 166.375C323.857 166.366 316.47 163.301 311.022 157.853C305.574 152.405 302.509 145.018 302.5 137.312V131.5H308.312C316.018 131.508 323.405 134.573 328.854 140.021C334.302 145.47 337.367 152.857 337.375 160.562V166.375H331.562ZM407.125 114.062C407.11 127.932 401.593 141.229 391.786 151.036C381.979 160.843 368.682 166.36 354.812 166.375H349V160.562C349.015 146.693 354.532 133.396 364.339 123.589C374.146 113.782 387.443 108.265 401.312 108.25H407.125V114.062Z" fill="#F4F4F4"/>
</svg>
